<svg xmlns="http://www.w3.org/2000/svg" viewBox="0 0 800 800" role="img" aria-labelledby="title description">
  <title id="title">Graphiques Digitale project artwork</title>
  <desc id="description">Abstract digital studio grid with layered interface forms.</desc>
  <defs>
    <linearGradient id="background" x1="0" y1="0" x2="1" y2="1">
      <stop offset="0" stop-color="#33220f"/>
      <stop offset="1" stop-color="#060403"/>
    </linearGradient>
    <radialGradient id="glow" cx="0.18" cy="0.12" r="0.82">
      <stop offset="0" stop-color="#ffb05c" stop-opacity=".42"/>
      <stop offset="1" stop-color="#ffb05c" stop-opacity="0"/>
    </radialGradient>
  </defs>
  <rect width="800" height="800" fill="url(#background)"/>
  <rect width="800" height="800" fill="url(#glow)"/>
  <g fill="none" stroke="#ffb05c" stroke-width="2">
    <path d="M72 620V180h656v440H72z" opacity=".18"/>
    <path d="M72 300h656M72 460h656M300 180v440M500 180v440" opacity=".14"/>
    <rect x="118" y="228" width="148" height="148" rx="18" opacity=".28"/>
    <rect x="338" y="228" width="344" height="68" rx="16" opacity=".22"/>
    <rect x="338" y="338" width="220" height="92" rx="16" opacity=".18"/>
    <rect x="118" y="498" width="564" height="72" rx="16" opacity=".24"/>
  </g>
  <g fill="#ffb05c">
    <circle cx="192" cy="302" r="16" opacity=".85"/>
    <circle cx="520" cy="264" r="12" opacity=".65"/>
    <circle cx="430" cy="384" r="18"/>
    <circle cx="650" cy="534" r="14" opacity=".7"/>
  </g>
  <g transform="translate(520 118)">
    <rect width="188" height="132" rx="22" fill="#0d0905" stroke="#ffb05c" stroke-opacity=".55" stroke-width="3"/>
    <path d="M34 42h120M34 72h88M34 102h104" stroke="#fff" stroke-linecap="round" stroke-width="10" opacity=".14"/>
    <path d="M34 42h72M34 72h54M34 102h78" stroke="#ffb05c" stroke-linecap="round" stroke-width="10" opacity=".72"/>
  </g>
  <text x="56" y="82" fill="#ffb05c" font-family="Arial, sans-serif" font-size="22" font-weight="700" letter-spacing="6">DIGITAL STUDIO</text>
  <text x="744" y="744" fill="#fff" font-family="Arial, sans-serif" font-size="18" text-anchor="end" opacity=".5">03 / GRAPHIQUES DIGITALE</text>
</svg>
