<svg xmlns="http://www.w3.org/2000/svg" viewBox="0 0 800 800" role="img" aria-labelledby="title description">
  <title id="title">Gravitiq project artwork</title>
  <desc id="description">Abstract commerce portfolio shown as orbiting product systems.</desc>
  <defs>
    <linearGradient id="background" x1="0" y1="0" x2="1" y2="1">
      <stop offset="0" stop-color="#251a35"/>
      <stop offset="1" stop-color="#050407"/>
    </linearGradient>
    <radialGradient id="glow" cx="0.25" cy="0.15" r="0.8">
      <stop offset="0" stop-color="#be91ff" stop-opacity=".42"/>
      <stop offset="1" stop-color="#be91ff" stop-opacity="0"/>
    </radialGradient>
  </defs>
  <rect width="800" height="800" fill="url(#background)"/>
  <rect width="800" height="800" fill="url(#glow)"/>
  <g transform="translate(400 410)" fill="none" stroke="#be91ff">
    <ellipse rx="290" ry="122" transform="rotate(-22)" opacity=".22" stroke-width="2"/>
    <ellipse rx="245" ry="245" transform="rotate(18)" opacity=".12" stroke-width="2"/>
    <ellipse rx="158" ry="310" transform="rotate(54)" opacity=".16" stroke-width="2"/>
    <circle r="98" fill="#be91ff" fill-opacity=".08" stroke-opacity=".65" stroke-width="3"/>
    <circle r="54" fill="#08060b" stroke-opacity=".35"/>
    <path d="M-26 7h52M0-26v52" stroke-linecap="round" stroke-width="8"/>
    <g fill="#be91ff" stroke="none">
      <circle cx="-275" cy="65" r="18"/>
      <circle cx="232" cy="-112" r="24" opacity=".8"/>
      <circle cx="108" cy="257" r="15" opacity=".65"/>
      <circle cx="-142" cy="-230" r="12" opacity=".55"/>
    </g>
  </g>
  <g transform="translate(88 550)">
    <rect width="180" height="112" rx="18" fill="#0b0910" stroke="#be91ff" stroke-opacity=".35"/>
    <rect x="24" y="24" width="56" height="64" rx="10" fill="#be91ff" opacity=".22"/>
    <rect x="98" y="30" width="55" height="10" rx="5" fill="#fff" opacity=".32"/>
    <rect x="98" y="53" width="38" height="10" rx="5" fill="#be91ff" opacity=".6"/>
  </g>
  <text x="56" y="82" fill="#be91ff" font-family="Arial, sans-serif" font-size="22" font-weight="700" letter-spacing="6">PORTFOLIO SYSTEMS</text>
  <text x="744" y="744" fill="#fff" font-family="Arial, sans-serif" font-size="18" text-anchor="end" opacity=".5">02 / GRAVITIQ</text>
</svg>
