<svg xmlns="http://www.w3.org/2000/svg" viewBox="0 0 800 800" role="img" aria-labelledby="title description">
  <title id="title">SO-SURE project artwork</title>
  <desc id="description">Abstract insurance interface with a protected mobile device.</desc>
  <defs>
    <linearGradient id="background" x1="0" y1="0" x2="1" y2="1">
      <stop offset="0" stop-color="#243510"/>
      <stop offset="1" stop-color="#050704"/>
    </linearGradient>
    <radialGradient id="glow" cx="0.2" cy="0.1" r="0.8">
      <stop offset="0" stop-color="#c0ff66" stop-opacity=".4"/>
      <stop offset="1" stop-color="#c0ff66" stop-opacity="0"/>
    </radialGradient>
  </defs>
  <rect width="800" height="800" fill="url(#background)"/>
  <rect width="800" height="800" fill="url(#glow)"/>
  <g fill="none" stroke="#c0ff66">
    <circle cx="665" cy="132" r="184" opacity=".12"/>
    <circle cx="665" cy="132" r="132" opacity=".18"/>
    <path d="M68 675C205 538 262 421 308 202" opacity=".15"/>
  </g>
  <g transform="translate(190 110)">
    <rect x="0" y="0" width="420" height="580" rx="58" fill="#090c07" stroke="#c0ff66" stroke-opacity=".5" stroke-width="3"/>
    <rect x="25" y="25" width="370" height="530" rx="40" fill="#10160c" stroke="#fff" stroke-opacity=".12"/>
    <rect x="153" y="14" width="114" height="10" rx="5" fill="#c0ff66" opacity=".35"/>
    <path d="M210 132l89 35v75c0 73-36 125-89 151-53-26-89-78-89-151v-75l89-35z" fill="#c0ff66" fill-opacity=".08" stroke="#c0ff66" stroke-width="4"/>
    <path d="M166 252l31 31 61-72" fill="none" stroke="#c0ff66" stroke-linecap="round" stroke-linejoin="round" stroke-width="14"/>
    <rect x="75" y="440" width="270" height="18" rx="9" fill="#fff" opacity=".12"/>
    <rect x="75" y="478" width="190" height="18" rx="9" fill="#c0ff66" opacity=".55"/>
  </g>
  <text x="56" y="82" fill="#c0ff66" font-family="Arial, sans-serif" font-size="22" font-weight="700" letter-spacing="6">DIGITAL COVER</text>
  <text x="744" y="744" fill="#fff" font-family="Arial, sans-serif" font-size="18" text-anchor="end" opacity=".5">01 / SO-SURE</text>
</svg>
